<?xml version="1.0" encoding="utf-8"?>
<!-- Generator: Adobe Illustrator 22.1.0, SVG Export Plug-In . SVG Version: 6.00 Build 0)  -->
<svg version="1.1" id="Layer_1" xmlns="http://www.w3.org/2000/svg" xmlns:xlink="http://www.w3.org/1999/xlink" x="0px" y="0px"
	 viewBox="0 0 803.2 194.7" style="enable-background:new 0 0 803.2 194.7;" xml:space="preserve">
<style type="text/css">
	.st0{fill:#B53939;}
	.st1{fill:#B25252;}
	.st2{fill:#AF7575;}
	.st3{fill:#230C0C;}
	.st4{font-family:'CenturyGothic-Bold';}
	.st5{font-size:167px;}
	.st6{letter-spacing:-3;}
	.st7{font-family:'CenturyGothic';}
	.st8{font-size:119px;}
	.st9{letter-spacing:-7;}
	.st10{letter-spacing:-2;}
</style>
<path class="st0" d="M301.7,145.3C282.2,139.2,268,121,268,99.5c0-22.7,15.8-41.7,37-46.7v-0.3L149.9,73.2h52.9L0,99.1L202.7,125
	h-52.9L301.7,145.3z"/>
<path class="st1" d="M275,125.4c-4.4-7.3-7-15.8-7-24.9c0-10.7,3.5-20.6,9.4-28.6l-74.3,9.9h34.7l-133.1,17l133.1,17h-34.7
	L275,125.4z"/>
<path class="st2" d="M269.7,112.1c-1.1-4-1.7-8.3-1.7-12.7c0-4.5,0.6-8.8,1.8-12.9l-23,3.1h19.9l-76.1,9.7l76.1,9.7h-19.9
	L269.7,112.1z"/>
<text transform="matrix(1 0 0 1 258.2271 143.4521)"><tspan x="0" y="0" class="st3 st4 st5 st6">a</tspan><tspan x="106.9" y="0" class="st0 st7 st8">fter</tspan><tspan x="300.1" y="0" class="st3 st4 st8 st9">b</tspan><tspan x="371.4" y="0" class="st0 st7 st8 st10">urn</tspan></text>
</svg>
